<svg width="59" height="62" viewBox="0 0 59 62" fill="none" xmlns="http://www.w3.org/2000/svg">
<path d="M39.2781 61.1302C32.5145 61.1302 29.637 49.6971 29.0437 43.9806V61.1302H39.2781Z" fill="#009A42"/>
<path d="M18.5326 61.1302C25.4791 61.1302 28.4344 49.6971 29.0437 43.9806V61.1302H18.5326Z" fill="#009A42"/>
<path d="M56.25 41.0557C54.1923 44.8672 51.0239 47.6187 47.0225 48.9824C43.5862 47.5862 40.2186 46.248 36.9229 44.998C38.4117 44.5438 39.8781 44.1187 41.3232 43.7314C46.6545 42.3027 51.6251 41.3695 56.25 41.0557ZM2.70117 41.0771C7.23797 41.411 12.1061 42.3346 17.3184 43.7314C18.763 44.1186 20.2285 44.5439 21.7168 44.998C18.4707 46.2292 15.1548 47.5456 11.7725 48.9189C7.85892 47.537 4.74227 44.8197 2.70117 41.0771ZM29.459 0C45.7284 0.000201619 58.917 13.1895 58.917 29.459C58.917 31.1638 58.778 32.7888 58.5137 34.3242C52.6519 35.1399 46.4233 37.2096 40.0342 38.9219C36.5677 39.8509 32.9945 40.9723 29.3203 42.2383C25.6461 40.9723 22.073 39.8509 18.6064 38.9219C12.363 37.2487 6.27267 35.578 0.52832 34.9707C0.182342 33.2473 1.96868e-05 31.4051 0 29.459C0 13.1894 13.1894 0 29.459 0ZM47.3691 11.2168C29.7416 19.1503 25.6519 34.758 24.9365 39.4902L26.2158 39.8184C30.0172 28.4616 39.1426 21.308 43.2305 19.1504C43.2302 23.2111 38.8367 33.3681 36.6396 37.9395L42.6914 34.7227C44.6534 30.0458 46.8071 16.4363 47.3691 11.2168ZM8.67285 12.8994C9.3448 17.9218 11.7094 29.8832 15.7578 35.7559L21.3965 38.1367C18.77 33.7381 13.6201 24.4393 13.6201 20.5322C16.247 21.6482 20.9729 24.3604 25.1562 28.1367L27.1807 24.7539C23.2289 20.403 17.3635 16.0476 8.67285 12.8994Z" fill="#009A42"/>
</svg>
