<svg width="226" height="62" viewBox="0 0 226 62" fill="none" xmlns="http://www.w3.org/2000/svg">
<g clip-path="url(#clip0_102_12)">
<path d="M39.2781 61.1302C32.5145 61.1302 29.637 49.6971 29.0437 43.9806V61.1302H39.2781Z" fill="#009A42"/>
<path d="M18.5326 61.1302C25.4791 61.1302 28.4344 49.6971 29.0437 43.9806V61.1302H18.5326Z" fill="#009A42"/>
<path d="M56.25 41.0557C54.1923 44.8672 51.0239 47.6187 47.0225 48.9824C43.5862 47.5862 40.2186 46.248 36.9229 44.998C38.4117 44.5438 39.8781 44.1187 41.3232 43.7314C46.6545 42.3027 51.6251 41.3695 56.25 41.0557ZM2.70117 41.0771C7.23797 41.411 12.1061 42.3346 17.3184 43.7314C18.763 44.1186 20.2285 44.5439 21.7168 44.998C18.4707 46.2292 15.1548 47.5456 11.7725 48.9189C7.85892 47.537 4.74227 44.8197 2.70117 41.0771ZM29.459 0C45.7284 0.000201619 58.917 13.1895 58.917 29.459C58.917 31.1638 58.778 32.7888 58.5137 34.3242C52.6519 35.1399 46.4233 37.2096 40.0342 38.9219C36.5677 39.8509 32.9945 40.9723 29.3203 42.2383C25.6461 40.9723 22.073 39.8509 18.6064 38.9219C12.363 37.2487 6.27267 35.578 0.52832 34.9707C0.182342 33.2473 1.96868e-05 31.4051 0 29.459C0 13.1894 13.1894 0 29.459 0ZM47.3691 11.2168C29.7416 19.1503 25.6519 34.758 24.9365 39.4902L26.2158 39.8184C30.0172 28.4616 39.1426 21.308 43.2305 19.1504C43.2302 23.2111 38.8367 33.3681 36.6396 37.9395L42.6914 34.7227C44.6534 30.0458 46.8071 16.4363 47.3691 11.2168ZM8.67285 12.8994C9.3448 17.9218 11.7094 29.8832 15.7578 35.7559L21.3965 38.1367C18.77 33.7381 13.6201 24.4393 13.6201 20.5322C16.247 21.6482 20.9729 24.3604 25.1562 28.1367L27.1807 24.7539C23.2289 20.403 17.3635 16.0476 8.67285 12.8994Z" fill="#009A42"/>
<path d="M88.827 47.5151C86.517 47.5151 84.372 47.1101 82.392 46.3001C80.412 45.4601 78.672 44.3051 77.172 42.8351C75.702 41.3351 74.562 39.5951 73.752 37.6151C72.972 35.6351 72.582 33.5051 72.582 31.2251C72.582 28.9451 72.972 26.8151 73.752 24.8351C74.562 22.8551 75.702 21.1301 77.172 19.6601C78.672 18.1901 80.397 17.0351 82.347 16.1951C84.327 15.3551 86.487 14.9351 88.827 14.9351C91.347 14.9351 93.567 15.3551 95.487 16.1951C97.407 17.0051 99.102 18.1301 100.572 19.5701L96.432 23.7101C95.562 22.7501 94.497 22.0001 93.237 21.4601C91.977 20.9201 90.507 20.6501 88.827 20.6501C87.357 20.6501 86.007 20.9051 84.777 21.4151C83.577 21.8951 82.527 22.6151 81.627 23.5751C80.727 24.5051 80.037 25.6301 79.557 26.9501C79.077 28.2401 78.837 29.6651 78.837 31.2251C78.837 32.8151 79.077 34.2551 79.557 35.5451C80.037 36.8351 80.727 37.9601 81.627 38.9201C82.527 39.8501 83.577 40.5701 84.777 41.0801C86.007 41.5901 87.357 41.8451 88.827 41.8451C90.597 41.8451 92.112 41.5751 93.372 41.0351C94.662 40.4951 95.742 39.7301 96.612 38.7401L100.752 42.8801C99.282 44.3501 97.572 45.4901 95.622 46.3001C93.672 47.1101 91.407 47.5151 88.827 47.5151ZM112.747 47.5151C110.827 47.5151 109.117 47.1101 107.617 46.3001C106.147 45.4901 104.992 44.3651 104.152 42.9251C103.312 41.4851 102.892 39.8201 102.892 37.9301V25.3301H108.832V37.7951C108.832 38.6951 108.982 39.4751 109.282 40.1351C109.582 40.7651 110.032 41.2451 110.632 41.5751C111.232 41.9051 111.937 42.0701 112.747 42.0701C113.977 42.0701 114.937 41.6951 115.627 40.9451C116.317 40.1951 116.662 39.1451 116.662 37.7951V25.3301H122.557V37.9301C122.557 39.8501 122.137 41.5301 121.297 42.9701C120.487 44.4101 119.332 45.5351 117.832 46.3451C116.362 47.1251 114.667 47.5151 112.747 47.5151ZM126.351 47.0651V14.5301H132.246V47.0651H126.351ZM139.764 47.0651V16.2851H145.659V47.0651H139.764ZM134.679 30.5051V25.3301H150.744V30.5051H134.679ZM153.159 47.0651V25.3301H159.099V47.0651H153.159ZM156.129 21.8201C155.169 21.8201 154.374 21.5051 153.744 20.8751C153.114 20.2151 152.799 19.4051 152.799 18.4451C152.799 17.5151 153.114 16.7201 153.744 16.0601C154.374 15.4001 155.169 15.0701 156.129 15.0701C157.119 15.0701 157.914 15.4001 158.514 16.0601C159.144 16.7201 159.459 17.5151 159.459 18.4451C159.459 19.4051 159.144 20.2151 158.514 20.8751C157.914 21.5051 157.119 21.8201 156.129 21.8201ZM170.487 47.0651L160.902 25.3301H167.382L174.267 43.2401H171.072L178.002 25.3301H184.257L174.717 47.0651H170.487ZM195.812 47.5151C193.532 47.5151 191.507 47.0351 189.737 46.0751C187.967 45.0851 186.557 43.7351 185.507 42.0251C184.487 40.3151 183.977 38.3651 183.977 36.1751C183.977 34.0151 184.472 32.0951 185.462 30.4151C186.482 28.7051 187.862 27.3551 189.602 26.3651C191.342 25.3451 193.277 24.8351 195.407 24.8351C197.507 24.8351 199.352 25.3151 200.942 26.2751C202.562 27.2051 203.822 28.4951 204.722 30.1451C205.652 31.7651 206.117 33.6101 206.117 35.6801C206.117 36.0701 206.087 36.4751 206.027 36.8951C205.997 37.2851 205.922 37.7351 205.802 38.2451L187.532 38.2901V33.8801L203.057 33.8351L200.672 35.6801C200.612 34.3901 200.372 33.3101 199.952 32.4401C199.562 31.5701 198.977 30.9101 198.197 30.4601C197.447 29.9801 196.517 29.7401 195.407 29.7401C194.237 29.7401 193.217 30.0101 192.347 30.5501C191.477 31.0601 190.802 31.7951 190.322 32.7551C189.872 33.6851 189.647 34.7951 189.647 36.0851C189.647 37.4051 189.887 38.5601 190.367 39.5501C190.877 40.5101 191.597 41.2601 192.527 41.8001C193.457 42.3101 194.537 42.5651 195.767 42.5651C196.877 42.5651 197.882 42.3851 198.782 42.0251C199.682 41.6351 200.462 41.0651 201.122 40.3151L204.587 43.7801C203.537 45.0101 202.247 45.9401 200.717 46.5701C199.217 47.2001 197.582 47.5151 195.812 47.5151Z" fill="black"/>
</g>
<defs>
<clipPath id="clip0_102_12">
<rect width="226" height="61.1302" rx="20" fill="white"/>
</clipPath>
</defs>
</svg>
