<svg width="227" height="71" viewBox="0 0 227 71" fill="none" xmlns="http://www.w3.org/2000/svg">
<g clip-path="url(#clip0_102_12)">
<path d="M45.6198 71C37.7641 71 34.422 57.7209 33.7329 51.0814V71H45.6198Z" fill="#009A42"/>
<path d="M21.5248 71C29.5928 71 33.0252 57.7209 33.7329 51.0814V71H21.5248Z" fill="#009A42"/>
<path d="M65.332 47.6836C62.9421 52.1109 59.262 55.3067 54.6143 56.8906C50.6228 55.2689 46.711 53.7146 42.8828 52.2627C44.6125 51.7349 46.3162 51.2419 47.9951 50.792C54.1872 49.1326 59.9604 48.0482 65.332 47.6836ZM3.1377 47.71C8.40685 48.0978 14.0606 49.1697 20.1143 50.792C21.7926 51.2418 23.4955 51.7351 25.2246 52.2627C21.4539 53.6928 17.602 55.222 13.6729 56.8174C9.1278 55.2124 5.50831 52.0563 3.1377 47.71ZM34.2148 0C53.1112 0 68.4296 15.3185 68.4297 34.2148C68.4297 36.1951 68.2679 38.0828 67.9609 39.8662C61.1528 40.8137 53.9186 43.2174 46.498 45.2061C42.4719 46.285 38.322 47.5873 34.0547 49.0576C29.7873 47.5873 25.6375 46.2851 21.6113 45.2061C14.3593 43.2626 7.28458 41.3224 0.612305 40.6172C0.210441 38.6155 0 36.4753 0 34.2148C3.9799e-05 15.3185 15.3185 3.63706e-05 34.2148 0ZM55.0176 13.0273C34.5437 22.2417 29.7937 40.3699 28.9629 45.8662L30.4492 46.248C34.8645 33.0571 45.4633 24.7479 50.2109 22.2422C50.2107 26.9585 45.1074 38.7561 42.5557 44.0654L49.584 40.3291C51.8628 34.8974 54.3648 19.0894 55.0176 13.0273ZM10.0732 14.9814C10.8536 20.8144 13.5996 34.7073 18.3018 41.5283L24.8506 44.2939C21.8001 39.1851 15.8193 28.3855 15.8193 23.8477C18.8703 25.1438 24.358 28.2938 29.2168 32.6797L31.5684 28.75C26.9786 23.6967 20.1669 18.6379 10.0732 14.9814Z" fill="#009A42"/>
<path d="M99.5337 53.98C97.0697 53.98 94.7817 53.548 92.6697 52.684C90.5577 51.788 88.7017 50.556 87.1017 48.988C85.5337 47.388 84.3177 45.532 83.4537 43.42C82.6217 41.308 82.2057 39.036 82.2057 36.604C82.2057 34.172 82.6217 31.9 83.4537 29.788C84.3177 27.676 85.5337 25.836 87.1017 24.268C88.7017 22.7 90.5417 21.468 92.6217 20.572C94.7337 19.676 97.0377 19.228 99.5337 19.228C102.222 19.228 104.59 19.676 106.638 20.572C108.686 21.436 110.494 22.636 112.062 24.172L107.646 28.588C106.718 27.564 105.582 26.764 104.238 26.188C102.894 25.612 101.326 25.324 99.5337 25.324C97.9657 25.324 96.5257 25.596 95.2137 26.14C93.9337 26.652 92.8137 27.42 91.8537 28.444C90.8937 29.436 90.1577 30.636 89.6457 32.044C89.1337 33.42 88.8777 34.94 88.8777 36.604C88.8777 38.3 89.1337 39.836 89.6457 41.212C90.1577 42.588 90.8937 43.788 91.8537 44.812C92.8137 45.804 93.9337 46.572 95.2137 47.116C96.5257 47.66 97.9657 47.932 99.5337 47.932C101.422 47.932 103.038 47.644 104.382 47.068C105.758 46.492 106.91 45.676 107.838 44.62L112.254 49.036C110.686 50.604 108.862 51.82 106.782 52.684C104.702 53.548 102.286 53.98 99.5337 53.98ZM125.048 53.98C123 53.98 121.176 53.548 119.576 52.684C118.008 51.82 116.776 50.62 115.88 49.084C114.984 47.548 114.536 45.772 114.536 43.756V30.316H120.872V43.612C120.872 44.572 121.032 45.404 121.352 46.108C121.672 46.78 122.152 47.292 122.792 47.644C123.432 47.996 124.184 48.172 125.048 48.172C126.36 48.172 127.384 47.772 128.12 46.972C128.856 46.172 129.224 45.052 129.224 43.612V30.316H135.512V43.756C135.512 45.804 135.064 47.596 134.168 49.132C133.304 50.668 132.072 51.868 130.472 52.732C128.904 53.564 127.096 53.98 125.048 53.98ZM139.559 53.5V18.796H145.847V53.5H139.559ZM153.867 53.5V20.668H160.155V53.5H153.867ZM148.443 35.836V30.316H165.579V35.836H148.443ZM168.155 53.5V30.316H174.491V53.5H168.155ZM171.323 26.572C170.299 26.572 169.451 26.236 168.779 25.564C168.107 24.86 167.771 23.996 167.771 22.972C167.771 21.98 168.107 21.132 168.779 20.428C169.451 19.724 170.299 19.372 171.323 19.372C172.379 19.372 173.227 19.724 173.867 20.428C174.539 21.132 174.875 21.98 174.875 22.972C174.875 23.996 174.539 24.86 173.867 25.564C173.227 26.236 172.379 26.572 171.323 26.572ZM186.637 53.5L176.413 30.316H183.325L190.669 49.42H187.261L194.653 30.316H201.325L191.149 53.5H186.637ZM213.651 53.98C211.219 53.98 209.059 53.468 207.171 52.444C205.283 51.388 203.779 49.948 202.659 48.124C201.571 46.3 201.027 44.22 201.027 41.884C201.027 39.58 201.555 37.532 202.611 35.74C203.699 33.916 205.171 32.476 207.027 31.42C208.883 30.332 210.947 29.788 213.219 29.788C215.459 29.788 217.427 30.3 219.123 31.324C220.851 32.316 222.195 33.692 223.155 35.452C224.147 37.18 224.643 39.148 224.643 41.356C224.643 41.772 224.611 42.204 224.547 42.652C224.515 43.068 224.435 43.548 224.307 44.092L204.819 44.14V39.436L221.379 39.388L218.835 41.356C218.771 39.98 218.515 38.828 218.067 37.9C217.651 36.972 217.027 36.268 216.195 35.788C215.395 35.276 214.403 35.02 213.219 35.02C211.971 35.02 210.883 35.308 209.955 35.884C209.027 36.428 208.307 37.212 207.795 38.236C207.315 39.228 207.075 40.412 207.075 41.788C207.075 43.196 207.331 44.428 207.843 45.484C208.387 46.508 209.155 47.308 210.147 47.884C211.139 48.428 212.291 48.7 213.603 48.7C214.787 48.7 215.859 48.508 216.819 48.124C217.779 47.708 218.611 47.1 219.315 46.3L223.011 49.996C221.891 51.308 220.515 52.3 218.883 52.972C217.283 53.644 215.539 53.98 213.651 53.98Z" fill="black"/>
</g>
<defs>
<clipPath id="clip0_102_12">
<rect width="226.43" height="71" rx="20" fill="white"/>
</clipPath>
</defs>
</svg>
