<svg width="226" height="62" viewBox="0 0 226 62" fill="none" xmlns="http://www.w3.org/2000/svg">
<g clip-path="url(#clip0_552_14)">
<mask id="mask0_552_14" style="mask-type:luminance" maskUnits="userSpaceOnUse" x="0" y="0" width="226" height="62">
<path d="M206 0H20C8.9543 0 0 8.9543 0 20V41.1302C0 52.1759 8.9543 61.1302 20 61.1302H206C217.046 61.1302 226 52.1759 226 41.1302V20C226 8.9543 217.046 0 206 0Z" fill="white"/>
</mask>
<g mask="url(#mask0_552_14)">
<path d="M39.2781 61.1303C32.5145 61.1303 29.637 49.6972 29.0437 43.9807V61.1303H39.2781Z" fill="white"/>
<path d="M18.5326 61.1303C25.4791 61.1303 28.4344 49.6972 29.0437 43.9807V61.1303H18.5326Z" fill="white"/>
<path d="M56.25 41.0557C54.1923 44.8672 51.0239 47.6187 47.0225 48.9824C43.5862 47.5862 40.2186 46.248 36.9229 44.998C38.4117 44.5438 39.8781 44.1187 41.3232 43.7314C46.6545 42.3027 51.6251 41.3695 56.25 41.0557ZM2.70117 41.0771C7.23797 41.411 12.1061 42.3346 17.3184 43.7314C18.763 44.1186 20.2285 44.5439 21.7168 44.998C18.4707 46.2292 15.1548 47.5456 11.7725 48.9189C7.85892 47.537 4.74227 44.8197 2.70117 41.0771ZM29.459 0C45.7284 0.000201619 58.917 13.1895 58.917 29.459C58.917 31.1638 58.778 32.7888 58.5137 34.3242C52.6519 35.1399 46.4233 37.2096 40.0342 38.9219C36.5677 39.8509 32.9945 40.9723 29.3203 42.2383C25.6461 40.9723 22.073 39.8509 18.6064 38.9219C12.363 37.2487 6.27267 35.578 0.52832 34.9707C0.182342 33.2473 1.96868e-05 31.4051 0 29.459C0 13.1894 13.1894 0 29.459 0ZM47.3691 11.2168C29.7416 19.1503 25.6519 34.758 24.9365 39.4902L26.2158 39.8184C30.0172 28.4616 39.1426 21.308 43.2305 19.1504C43.2302 23.2111 38.8367 33.3681 36.6396 37.9395L42.6914 34.7227C44.6534 30.0458 46.8071 16.4363 47.3691 11.2168ZM8.67285 12.8994C9.3448 17.9218 11.7094 29.8832 15.7578 35.7559L21.3965 38.1367C18.77 33.7381 13.6201 24.4393 13.6201 20.5322C16.247 21.6482 20.9729 24.3604 25.1562 28.1367L27.1807 24.7539C23.2289 20.403 17.3635 16.0476 8.67285 12.8994Z" fill="white"/>
<path d="M88.827 47.515C86.517 47.515 84.372 47.11 82.392 46.3C80.412 45.46 78.672 44.305 77.172 42.835C75.702 41.335 74.562 39.595 73.752 37.615C72.972 35.635 72.582 33.505 72.582 31.225C72.582 28.945 72.972 26.815 73.752 24.835C74.562 22.855 75.702 21.13 77.172 19.66C78.672 18.19 80.397 17.035 82.347 16.195C84.327 15.355 86.487 14.935 88.827 14.935C91.347 14.935 93.567 15.355 95.487 16.195C97.407 17.005 99.102 18.13 100.572 19.57L96.432 23.71C95.562 22.75 94.497 22 93.237 21.46C91.977 20.92 90.507 20.65 88.827 20.65C87.357 20.65 86.007 20.905 84.777 21.415C83.577 21.895 82.527 22.615 81.627 23.575C80.727 24.505 80.037 25.63 79.557 26.95C79.077 28.24 78.837 29.665 78.837 31.225C78.837 32.815 79.077 34.255 79.557 35.545C80.037 36.835 80.727 37.96 81.627 38.92C82.527 39.85 83.577 40.57 84.777 41.08C86.007 41.59 87.357 41.845 88.827 41.845C90.597 41.845 92.112 41.575 93.372 41.035C94.662 40.495 95.742 39.73 96.612 38.74L100.752 42.88C99.282 44.35 97.572 45.49 95.622 46.3C93.672 47.11 91.407 47.515 88.827 47.515ZM112.747 47.515C110.827 47.515 109.117 47.11 107.617 46.3C106.147 45.49 104.992 44.365 104.152 42.925C103.312 41.485 102.892 39.82 102.892 37.93V25.33H108.832V37.795C108.832 38.695 108.982 39.475 109.282 40.135C109.582 40.765 110.032 41.245 110.632 41.575C111.232 41.905 111.937 42.07 112.747 42.07C113.977 42.07 114.937 41.695 115.627 40.945C116.317 40.195 116.662 39.145 116.662 37.795V25.33H122.557V37.93C122.557 39.85 122.137 41.53 121.297 42.97C120.487 44.41 119.332 45.535 117.832 46.345C116.362 47.125 114.667 47.515 112.747 47.515ZM126.351 47.065V14.53H132.246V47.065H126.351ZM139.764 47.065V16.285H145.659V47.065H139.764ZM134.679 30.505V25.33H150.744V30.505H134.679ZM153.159 47.065V25.33H159.099V47.065H153.159ZM156.129 21.82C155.169 21.82 154.374 21.505 153.744 20.875C153.114 20.215 152.799 19.405 152.799 18.445C152.799 17.515 153.114 16.72 153.744 16.06C154.374 15.4 155.169 15.07 156.129 15.07C157.119 15.07 157.914 15.4 158.514 16.06C159.144 16.72 159.459 17.515 159.459 18.445C159.459 19.405 159.144 20.215 158.514 20.875C157.914 21.505 157.119 21.82 156.129 21.82ZM170.487 47.065L160.902 25.33H167.382L174.267 43.24H171.072L178.002 25.33H184.257L174.717 47.065H170.487ZM195.812 47.515C193.532 47.515 191.507 47.035 189.737 46.075C187.967 45.085 186.557 43.735 185.507 42.025C184.487 40.315 183.977 38.365 183.977 36.175C183.977 34.015 184.472 32.095 185.462 30.415C186.482 28.705 187.862 27.355 189.602 26.365C191.342 25.345 193.277 24.835 195.407 24.835C197.507 24.835 199.352 25.315 200.942 26.275C202.562 27.205 203.822 28.495 204.722 30.145C205.652 31.765 206.117 33.61 206.117 35.68C206.117 36.07 206.087 36.475 206.027 36.895C205.997 37.285 205.922 37.735 205.802 38.245L187.532 38.29V33.88L203.057 33.835L200.672 35.68C200.612 34.39 200.372 33.31 199.952 32.44C199.562 31.57 198.977 30.91 198.197 30.46C197.447 29.98 196.517 29.74 195.407 29.74C194.237 29.74 193.217 30.01 192.347 30.55C191.477 31.06 190.802 31.795 190.322 32.755C189.872 33.685 189.647 34.795 189.647 36.085C189.647 37.405 189.887 38.56 190.367 39.55C190.877 40.51 191.597 41.26 192.527 41.8C193.457 42.31 194.537 42.565 195.767 42.565C196.877 42.565 197.882 42.385 198.782 42.025C199.682 41.635 200.462 41.065 201.122 40.315L204.587 43.78C203.537 45.01 202.247 45.94 200.717 46.57C199.217 47.2 197.582 47.515 195.812 47.515Z" fill="white"/>
</g>
</g>
<defs>
<clipPath id="clip0_552_14">
<rect width="226" height="62" fill="white"/>
</clipPath>
</defs>
</svg>
